<?xml version="1.0" standalone="no"?>
<!DOCTYPE svg PUBLIC "-//W3C//DTD SVG 1.1//EN" "http://www.w3.org/Graphics/SVG/1.1/DTD/svg11.dtd" >
<!--
2013-9-30: Created.
-->
<svg>
<metadata>
Created by iconfont
</metadata>
<defs>

<font id="iconfont" horiz-adv-x="1024" >
  <font-face
    font-family="iconfont"
    font-weight="500"
    font-stretch="normal"
    units-per-em="1024"
    ascent="896"
    descent="-128"
  />
    <missing-glyph />
    
    <glyph glyph-name="x" unicode="x" horiz-adv-x="1001"
d="M281 543q-27 -1 -53 -1h-83q-18 0 -36.5 -6t-32.5 -18.5t-23 -32t-9 -45.5v-76h912v41q0 16 -0.5 30t-0.5 18q0 13 -5 29t-17 29.5t-31.5 22.5t-49.5 9h-133v-97h-438v97zM955 310v-52q0 -23 0.5 -52t0.5 -58t-10.5 -47.5t-26 -30t-33 -16t-31.5 -4.5q-14 -1 -29.5 -0.5
t-29.5 0.5h-32l-45 128h-439l-44 -128h-29h-34q-20 0 -45 1q-25 0 -41 9.5t-25.5 23t-13.5 29.5t-4 30v167h911zM163 247q-12 0 -21 -8.5t-9 -21.5t9 -21.5t21 -8.5q13 0 22 8.5t9 21.5t-9 21.5t-22 8.5zM316 123q-8 -26 -14 -48q-5 -19 -10.5 -37t-7.5 -25t-3 -15t1 -14.5
t9.5 -10.5t21.5 -4h37h67h81h80h64h36q23 0 34 12t2 38q-5 13 -9.5 30.5t-9.5 34.5q-5 19 -11 39h-368zM336 498v228q0 11 2.5 23t10 21.5t20.5 15.5t34 6h188q31 0 51.5 -14.5t20.5 -52.5v-227h-327z" />
    

    
    <glyph glyph-name="444" unicode="&#58885;" d="M624.384 547.28l0 78.432c0 11.728-9.552 21.264-21.264 21.264L427.952 646.976c-11.712 0-21.264-9.536-21.264-21.264l0-78.432-116.72 0 0 78.432c0 76.096 61.888 138 137.984 138l175.168 0c76.064 0 137.968-61.904 137.968-138l0-78.432L624.384 547.28zM875.808 479.024 155.232 479.024c-43.984 0-79.6-35.632-79.6-79.616l0-349.12c-0.192-13.344-0.224-26.656 0-40l0-96.576c0-43.968 35.616-79.616 79.6-79.616l720.576 0c43.984 0 79.632 35.648 79.632 79.616L955.44 399.392C955.44 443.376 919.792 479.024 875.808 479.024zM515.52-38.528c-107.728 0-195.088 87.344-195.088 195.088 0 107.728 87.344 195.072 195.088 195.072s195.072-87.344 195.072-195.072C710.592 48.816 623.264-38.528 515.52-38.528zM547.392 266.048 483.68 266.048 483.68 188.384 406.048 188.384 406.048 124.704 483.68 124.704 483.68 47.072 547.392 47.072 547.392 124.704 625.008 124.704 625.008 188.384 547.392 188.384Z"  horiz-adv-x="1024" />

    
    <glyph glyph-name="yiliao" unicode="&#58957;" d="M755.870752 653.115204l-47.152926 0 0 34.556027c0 54.628178-44.720527 99.088786-99.670024 99.088786L414.186765 786.760017c-54.948473 0-99.650581-44.722574-99.650581-99.691513l0-33.9533L267.383258 653.115204c-76.848249 0-139.350768-62.522985-139.350768-139.370211l0-395.248949c0-76.826759 62.502519-139.349745 139.350768-139.349745l488.487493 0c76.848249 0 139.351791 62.522985 139.351791 139.349745L895.222543 513.744993C895.222543 590.593242 832.719001 653.115204 755.870752 653.115204zM373.14093 687.068504c0 22.662139 18.423605 41.066301 41.045835 41.066301l194.861036 0c23.023366 0 41.066301-17.759479 41.066301-40.463574l0-34.556027L373.14093 653.115204 373.14093 687.068504zM836.615751 118.497067c0-44.519959-36.222993-80.742952-80.744999-80.742952L267.383258 37.754115c-44.522006 0-80.744999 36.222993-80.744999 80.742952L186.638259 513.744993c0 44.520983 36.222993 80.744999 80.744999 80.744999l488.487493 0c44.522006 0 80.744999-36.224016 80.744999-80.744999L836.615751 118.497067zM637.879454 381.949294l-60.433394 0 0 60.452837c0 17.720593-14.506389 32.225959-32.226982 32.225959l-67.183122 0c-17.71957 0-32.225959-14.504342-32.225959-32.225959l0-60.452837-60.432371 0c-17.740036 0-32.246425-14.505365-32.246425-32.245402l0-67.143213c0-17.740036 14.505365-32.246425 32.246425-32.246425l60.432371 0 0-60.45386c0-17.718547 14.506389-32.224935 32.225959-32.224935l67.183122 0c17.720593 0 32.226982 14.506389 32.226982 32.224935l0 60.45386 60.433394 0c17.740036 0 32.263821 14.506389 32.263821 32.246425l0 67.143213C670.143275 367.443929 655.618467 381.949294 637.879454 381.949294z"  horiz-adv-x="1024" />

    
    <glyph glyph-name="jiedanjilumian" unicode="&#58915;" d="M857.857541-147.579805 206.832184-147.579805c-22.470781 0-40.689724 18.238386-40.689724 40.690748l0 162.756851-40.688701 0L125.453758 177.93492l40.688701 0 0 61.033052-40.688701 0L125.453758 361.033052l40.688701 0 0 61.035098-40.688701 0L125.453758 544.135276l40.688701 0L166.142459 706.891104c0 22.491247 18.21792 40.689724 40.689724 40.689724l651.025357 0c22.468734 0 40.686654-18.198477 40.686654-40.689724l0-813.780161C898.544195-129.341419 880.326275-147.579805 857.857541-147.579805zM552.689213 503.445552 308.55496 503.445552l0-40.688701 244.13323 0L552.688189 503.445552zM756.134765 320.345374 308.55496 320.345374l0-40.687678L756.134765 279.657696 756.134765 320.345374zM756.134765 137.244172 308.55496 137.244172l0-40.688701L756.134765 96.555471 756.134765 137.244172z"  horiz-adv-x="1024" />

    
    <glyph glyph-name="jiedanjiluxian" unicode="&#58916;" d="M857.895403-147.636087 206.796368-147.636087c-22.472827 0-40.692794 18.241456-40.692794 40.694841L166.103574 55.844258l-40.695864 0 0 122.080429 40.695864 0 0 61.038168-40.695864 0L125.40771 361.045331l40.695864 0L166.103574 422.086569l-40.695864 0L125.40771 544.168022l40.695864 0L166.103574 706.942269c0 22.472827 18.219967 40.693818 40.692794 40.693818l651.100058 0c22.472827 0 40.694841-18.22099 40.694841-40.693818l0-813.883515C898.590244-129.393607 880.36823-147.636087 857.895403-147.636087zM857.895403 676.422162c0 16.84976-13.668301 30.520107-30.521131 30.520107L237.316475 706.942269c-16.870226 0-30.520107-13.669324-30.520107-30.520107l0-752.8433c0-16.850783 13.649881-30.520107 30.520107-30.520107l590.057797 0c16.85283 0 30.521131 13.669324 30.521131 30.520107L857.895403 676.422162zM308.529377 137.229846l447.631994 0 0-40.693818L308.529377 96.536029 308.529377 137.229846zM308.529377 320.352537l447.631994 0 0-40.692794L308.529377 279.659743 308.529377 320.352537zM308.529377 503.475228l244.163929 0 0-40.695864L308.529377 462.779364 308.529377 503.475228z"  horiz-adv-x="1024" />

    
    <glyph glyph-name="profile" unicode="&#58888;" d="M629.187 335.187c85.831 43.104 144.741 131.922 144.741 234.512 0 144.853-117.426 262.28-262.28 262.28-144.853 0-262.28-117.425-262.28-262.28 0-102.608 58.929-191.438 144.782-234.534-135.242-39.572-242.062-145.688-282.631-280.499v-105.856c0-6.781 5.498-12.28 12.28-12.28l775.812-0c6.782 0 12.28 5.498 12.28 12.28v105.856c-40.576 134.837-147.428 240.965-282.705 280.521zM876.978-29.586h-729.617v84.252c0 0 79.477 217.282 303.239 260.261 0 0 16.032 3.751 16.032 16.714 0 10.197-8.546 15.626-12.194 17.479-97.285 25.52-169.055 114.040-169.055 219.331 0 125.229 101.518 226.747 226.747 226.747 125.229 0 226.747-101.518 226.747-226.747 0-104.276-70.394-192.098-166.249-218.572l-0.001-0.015c0 0-0.074-0.014-0.203-0.041-0.617-0.169-1.235-0.337-1.855-0.501-4.135-1.32-13.078-5.458-13.078-16.571 0-14.454 16.117-18.036 16.117-18.036s202.401-24.347 303.367-260.048l-0-84.252z"  horiz-adv-x="1024" />

    
    <glyph glyph-name="shouye" unicode="&#59000;" d="M1011.595 397.873l-507.781 468.337-480.065-468.337h165.874l1.829-510.99h654.336l-1.843 510.99h167.649zM228.577-75.844l-1.829 510.99h-111.425l389.202 379.699 411.702-379.699h-109.677l1.843-510.99h-579.817zM392.499 411.99h248.436v-37.26h-248.436v37.26z"  horiz-adv-x="1024" />

    
    <glyph glyph-name="mima" unicode="&#58914;" d="M830.79979 465.981153 800.485367 465.981153l0 76.725452c0 158.666696-129.818671 288.485367-288.485367 288.485367l-0.001023 0c-158.666696 0-288.485367-129.818671-288.485367-288.485367l0-76.725452-30.314423 0c-19.85214 0-35.945677-16.093537-35.945677-35.945677l0-457.280748c0-19.85214 16.093537-35.945677 35.945677-35.945677l637.599579 0c19.85214 0 35.945677 16.093537 35.945677 35.945677L866.744443 430.035476C866.745467 449.887616 850.65193 465.981153 830.79979 465.981153zM565.119825 178.650075l0-160.572092c0-11.06194-9.05012-20.11206-20.11206-20.11206l-66.015529 0c-11.06194 0-20.11206 9.05012-20.11206 20.11206L458.880175 178.650075c-39.803541 19.61985-67.191308 60.594053-67.191308 107.97006 0 66.446341 53.864792 120.311133 120.311133 120.311133 66.446341 0 120.311133-53.864792 120.311133-120.311133C632.311133 239.243105 604.923366 198.269925 565.119825 178.650075zM742.488465 465.981153 281.511535 465.981153l0 76.725452c0 61.246923 24.063045 119.039163 67.75515 162.732292 43.693128 43.693128 101.485369 67.75515 162.732292 67.75515 61.247946 0 119.040187-24.063045 162.733315-67.75515 43.693128-43.693128 67.75515-101.485369 67.75515-162.732292L742.487442 465.981153z"  horiz-adv-x="1024" />

    
    <glyph glyph-name="xiaoxi2" unicode="&#58910;" d="M192.896-68.70899999999995c-41.609 0-66.578 11.107-72.243 32.154-2.601 9.653-2.601 28.451 26.666 45.466 23.537 13.686 45.046 34.27 64.088 61.201-111.691 81.918-175.317 201.41-175.317 331.019 0 236.452 215.14 428.848 479.582 428.848 264.594 0 479.868-192.375 479.868-428.848 0-236.497-215.273-428.893-479.868-428.893-47.031 0-94.016 6.324-139.791 18.843-64.198-43.945-135.955-59.791-182.986-59.791z"  horiz-adv-x="1024" />

    
    <glyph glyph-name="shouji01" unicode="&#59113;" d="M582.023308 762.135176c0-7.740288-6.263657-14.005992-14.004969-14.005992L455.979614 748.129184c-7.740288 0-14.004969 6.264681-14.004969 14.005992s6.263657 14.004969 14.004969 14.004969l112.038726 0C575.758628 776.140145 582.023308 769.876488 582.023308 762.135176zM750.082932 790.009014l0-69.88772 0-28.009937 0-560.201815 0-28.009937 0-125.906571c0-23.222911-18.914792-42.151006-42.151006-42.151006L316.068074-64.157973c-23.237237 0-42.151006 18.928095-42.151006 42.151006L273.917068 103.898581l0 28.009937L273.917068 692.111357 273.917068 720.121294 273.917068 790.009014c0 23.236214 18.914792 42.151006 42.151006 42.151006l391.863852 0C731.16814 832.16002 750.082932 813.245228 750.082932 790.009014zM722.071971 103.898581 301.925982 103.898581l0-125.906571c0-7.795547 6.345522-14.141068 14.141068-14.141068l391.863852 0c7.794523 0 14.140045 6.345522 14.140045 14.141068L722.070948 103.898581zM722.071971 692.111357 301.925982 692.111357l0-560.201815 420.145989 0L722.071971 692.111357zM722.071971 720.121294 722.071971 790.009014c0 7.795547-6.345522 14.141068-14.140045 14.141068L316.068074 804.150082c-7.795547 0-14.141068-6.345522-14.141068-14.141068l0-69.88772L722.071971 720.121294zM469.984582 33.874761c0 23.168676 18.847254 42.015929 42.013883 42.015929 23.168676 0 42.015929-18.847254 42.015929-42.015929 0-23.167652-18.847254-42.014906-42.015929-42.014906C488.831836-8.140145 469.984582 10.707109 469.984582 33.874761zM497.993496 33.874761c0-7.712659 6.277984-14.004969 14.004969-14.004969 7.729032 0 14.007015 6.291287 14.007015 14.004969 0 7.741311-6.277984 14.005992-14.007015 14.005992C504.27148 47.87973 497.993496 41.616072 497.993496 33.874761z"  horiz-adv-x="1024" />

    
    <glyph glyph-name="chakan" unicode="&#58894;" d="M512 658.2848C237.7152 658.2848 128 384 128 384s109.7152-274.2912 384-274.2912S896 384 896 384 786.2848 658.2848 512 658.2848L512 658.2848zM512 219.42399999999998c-90.8544 0-164.5696 73.664-164.5696 164.576 0 90.9056 73.7152 164.5696 164.5696 164.5696S676.5696 474.912 676.5696 384C676.5696 293.08799999999997 602.8544 219.42399999999998 512 219.42399999999998L512 219.42399999999998zM512 219.42399999999998M594.2784 384c0-45.4272-36.8512-82.2912-82.2784-82.2912S429.7216 338.57280000000003 429.7216 384c0 45.4272 36.8512 82.2784 82.2784 82.2784C557.4336 466.2912 594.2784 429.4336 594.2784 384L594.2784 384zM594.2784 384"  horiz-adv-x="1024" />

    
    <glyph glyph-name="shouye1" unicode="&#59042;" d="M935.365632 444.87168 592.339968 801.905664c-21.308416 22.163456-49.805312 34.36544-80.34304 34.36544-30.532608 0-59.030528-12.201984-80.338944-34.36544L88.631296 444.87168c-35.393536-36.857856-30.83776-68.708352-24.983552-82.011136 4.169728-9.44128 18.249728-35.392512 58.805248-35.392512l50.279424 0 0-274.659328c0-62.360576 44.785664-121.073664 108.423168-121.073664l57.704448 0 346.283008-0.00512 57.7024 0c63.637504 0 108.429312 58.710016 108.429312 121.071616L851.274752 327.468032l50.275328 0c40.558592 0 54.637568 25.946112 58.809344 35.387392C966.203392 376.163328 970.766336 408.013824 935.365632 444.87168zM701.817856 239.740928 546.6624 239.740928l0-155.157504c0-19.14368-15.517696-34.6624-34.6624-34.6624-19.142656 0-34.6624 15.517696-34.6624 34.6624L477.3376 239.740928 322.18112 239.740928c-19.142656 0-34.6624 15.516672-34.6624 34.6624s15.51872 34.6624 34.6624 34.6624l155.15648 0 0 155.15648c0 19.144704 15.519744 34.6624 34.6624 34.6624 19.14368 0 34.6624-15.517696 34.6624-34.6624l0-155.15648 155.15648 0c19.144704 0 34.663424-15.516672 34.663424-34.6624S720.96256 239.740928 701.817856 239.740928z"  horiz-adv-x="1024" />

    
    <glyph glyph-name="password" unicode="&#58896;" d="M720.741 450.879v104.425c0 0 2.6 208.851-208.852 208.851-208.876 0-208.851-208.851-208.851-208.851v-104.425h-78.32v-417.702h574.341v417.702h-78.319zM537.996 242.029v-104.426h-52.212l0 104.426c-22.078 0-26.107 29.51-26.107 52.212 0 25.481 19.070 52.238 52.212 52.238 33.921 0 52.239-24.779 52.212-52.238 0.001-32.174-6.832-52.212-26.106-52.212M668.528 450.879h-313.277v104.425c0.293 25.24 5.749 156.639 156.637 156.639 145.599 0 156.345-131.794 156.639-156.639v-104.425z"  horiz-adv-x="1024" />

    
    <glyph glyph-name="safe" unicode="&#58899;" d="M511.889 764.16l-300.305-120.123v-240.245c0-164.569 107.16-300.094 264.269-360.366 35.614-13.666 36.459-13.666 72.074 0 157.109 60.272 264.269 195.797 264.269 360.366l-0 240.245-300.307 120.123zM472.123 272.727l-111.747 112.755 38.218 38.57 73.529-74.186 183.303 184.993 38.219-38.559-221.522-223.574z"  horiz-adv-x="1024" />

    
    <glyph glyph-name="anquanbaozhang" unicode="&#58909;" d="M895.59 738.605c-125.446 5.447-245.541 47.869-356.98 126.129l-21.122 14.814-21.067-14.814c-111.371-78.247-231.478-120.682-356.133-126.102l-39.376 0 0-331.722c0-242.989 167.622-451.066 407.648-505.993l10.473-1.679 7.523 1.679c239.971 54.927 407.566 263.004 407.566 505.993l0 331.722-38.53-0.028zM746.086 514.321l-267.728-277.777c-6.718-6.198-17.285-5.789-23.498 0.928l-166.284 176.538c-6.198 6.718-5.789 17.285 0.928 23.498l4.246 3.919c6.718 6.198 17.285 5.789 23.498-0.928l150.05-159.307 250.948 260.492c6.417 6.526 16.998 6.608 23.511 0.191l4.11-4.055c6.54-6.403 6.622-16.985 0.219-23.498z"  horiz-adv-x="1024" />

    
    <glyph glyph-name="chakantiezihuifu" unicode="&#58979;" d="M512.146827 627.489015c-250.902034 0-454.505322-157.57406-454.505322-359.095851 0-77.452531 32.639121-168.259723 83.298552-213.54786C166.24668 32.21949500000005 88.131465-94.26851199999999 109.075322-122.19365400000004c23.957624-31.943141 164.908706 79.128039 205.700895 61.760749C355.568406-77.80019600000003 441.499439-91.04638 512.146827-91.04638c250.902034 0 447.742067 158.01764 454.089667 359.439545C972.069626 453.493897 768.001278 627.489015 512.146827 627.489015zM511.997535-54.52888600000006C447.362645-54.52888600000006 362.014817-37.770578 323.347087-24.455655999999976c-38.351961 13.206444-179.982913-66.085924-179.982913-66.085924s52.530415 136.615167 29.151701 161.97227c-42.140114 45.708088-76.209862 124.513914-76.209862 195.375037 0 184.372531 186.277885 324.240977 415.827925 324.240977s415.35105-154.807323 415.447714-324.240977C927.690131 74.35638700000004 741.54865-54.52888600000006 511.997535-54.52888600000006zM311.488568 273.05451500000004m-64.394304 0a59.955 59.955 0 1 1 128.788609 0 59.955 59.955 0 1 1-128.788609 0ZM504.000204 273.05451500000004m-64.394304 0a59.955 59.955 0 1 1 128.788609 0 59.955 59.955 0 1 1-128.788609 0ZM696.511839 273.05451500000004m-64.394304 0a59.955 59.955 0 1 1 128.788609 0 59.955 59.955 0 1 1-128.788609 0Z"  horiz-adv-x="1024" />

    
    <glyph glyph-name="chakan1" unicode="&#58923;" d="M716.762463 896C204.762463 896 0 384 0 384s204.762463-512 716.762463-512c512 0 716.762463 512 716.762463 512S1228.57478 896 716.762463 896L716.762463 896zM716.762463 76.95014700000002c-169.665689 0-307.237537 137.571848-307.237537 307.237537 0 169.665689 137.571848 307.237537 307.237537 307.237537 169.665689 0 307.237537-137.571848 307.237537-307.237537C1023.812317 214.33431099999996 886.240469 76.95014700000002 716.762463 76.95014700000002L716.762463 76.95014700000002zM716.762463 76.95014700000002M870.28739 384c0-84.832845-68.879765-153.524927-153.524927-153.524927S563.049853 299.35483899999997 563.049853 384c0 84.832845 68.879765 153.524927 153.524927 153.524927C801.595308 537.71261 870.28739 468.832845 870.28739 384L870.28739 384zM870.28739 384"  horiz-adv-x="1434" />

    
    <glyph glyph-name="wuuiconsuotanhao" unicode="&#58911;" d="M512 896C230.4 896 0 665.6 0 384s230.4-512 512-512 512 230.4 512 512S793.6 896 512 896zM512 18.285714c-40.228571 0-73.142857 32.914286-73.142857 73.142857s32.914286 73.142857 73.142857 73.142857 73.142857-32.914286 73.142857-73.142857S552.228571 18.285714 512 18.285714zM585.142857 384c0-40.228571-32.914286-73.142857-73.142857-73.142857s-73.142857 32.914286-73.142857 73.142857L438.857143 676.571429c0 40.228571 32.914286 73.142857 73.142857 73.142857s73.142857-32.914286 73.142857-73.142857L585.142857 384z"  horiz-adv-x="1024" />

    
    <glyph glyph-name="anquan" unicode="&#58942;" d="M845.824 675.65568c-10.07616 9.29792-23.26528 13.94688-36.39296 13.94688-1.55648 0-2.33472 0-3.87072 0-0.77824 0-9.29792-0.77824-22.46656-0.77824-22.46656 0-65.04448 1.55648-106.06592 11.61216-52.67456 12.36992-113.84832 70.4512-131.66592 82.08384-8.4992 5.4272-19.3536 8.51968-29.42976 8.51968-10.05568 0-20.11136-3.09248-29.40928-8.51968-2.31424-1.55648-65.80224-67.35872-127.75424-82.08384-41.04192-10.05568-85.17632-11.61216-106.84416-11.61216-13.94688 0-22.44608 0.77824-23.22432 0.77824-0.77824 0-2.33472 0-3.09248 0-13.94688 0-26.33728-4.64896-36.39296-13.94688-10.83392-9.29792-17.01888-23.22432-17.01888-37.1712l0-128.512c0-473.88672 321.31072-535.01952 334.47936-537.35424 3.09248-0.77824 6.20544-0.77824 9.27744-0.77824 3.09248 0 6.22592 0 9.3184 0.77824 13.9264 2.33472 336.7936 63.488 336.7936 537.35424l0 128.512C862.06464 652.43136 855.83872 666.35776 845.824 675.65568L845.824 675.65568zM726.56896 492.1344 504.34048 276.91008c-1.55648-2.33472-3.09248-4.66944-5.4272-6.22592-6.20544-6.18496-14.70464-9.27744-23.22432-9.27744-8.54016 0-17.03936 3.09248-24.00256 9.27744-1.55648 1.55648-3.85024 3.87072-4.64896 6.22592l-119.23456 115.36384c-12.3904 12.3904-12.3904 31.72352 0 44.11392 12.36992 12.41088 33.28 12.41088 45.6704 0l102.21568-98.32448 205.18912 198.20544c13.18912 12.3904 33.28 12.3904 45.6704 0C739.71712 524.65664 739.71712 504.5248 726.56896 492.1344L726.56896 492.1344z"  horiz-adv-x="1024" />

    
    <glyph glyph-name="yiliao1" unicode="&#58935;" d="M755.870752 653.115204l-47.152926 0 0 34.556027c0 54.628178-44.720527 99.088786-99.670024 99.088786L414.186765 786.760017c-54.948473 0-99.650581-44.722574-99.650581-99.691513l0-33.9533L267.383258 653.115204c-76.848249 0-139.350768-62.522985-139.350768-139.370211l0-395.248949c0-76.826759 62.502519-139.349745 139.350768-139.349745l488.487493 0c76.848249 0 139.351791 62.522985 139.351791 139.349745L895.222543 513.744993C895.222543 590.593242 832.719001 653.115204 755.870752 653.115204zM373.14093 687.068504c0 22.662139 18.423605 41.066301 41.045835 41.066301l194.861036 0c23.023366 0 41.066301-17.759479 41.066301-40.463574l0-34.556027L373.14093 653.115204 373.14093 687.068504zM836.615751 118.497067c0-44.519959-36.222993-80.742952-80.744999-80.742952L267.383258 37.754115c-44.522006 0-80.744999 36.222993-80.744999 80.742952L186.638259 513.744993c0 44.520983 36.222993 80.744999 80.744999 80.744999l488.487493 0c44.522006 0 80.744999-36.224016 80.744999-80.744999L836.615751 118.497067zM637.879454 381.949294l-60.433394 0 0 60.452837c0 17.720593-14.506389 32.225959-32.226982 32.225959l-67.183122 0c-17.71957 0-32.225959-14.504342-32.225959-32.225959l0-60.452837-60.432371 0c-17.740036 0-32.246425-14.505365-32.246425-32.245402l0-67.143213c0-17.740036 14.505365-32.246425 32.246425-32.246425l60.432371 0 0-60.45386c0-17.718547 14.506389-32.224935 32.225959-32.224935l67.183122 0c17.720593 0 32.226982 14.506389 32.226982 32.224935l0 60.45386 60.433394 0c17.740036 0 32.263821 14.506389 32.263821 32.246425l0 67.143213C670.143275 367.443929 655.618467 381.949294 637.879454 381.949294z"  horiz-adv-x="1024" />

    
    <glyph glyph-name="apple-and-pear" unicode="&#59132;" d="M158.096 7.544a381.336 94.504 0 1 1 762.672 0 381.336 94.504 0 1 1-762.672 0ZM763.432 337.944a24 24 0 0 0-21.984 33.6c23.328 53.496 44.488 140.52 18.496 166.52a24 24 0 1 0 33.936 33.944c59.264-59.264-1.344-203.44-8.448-219.68a24.016 24.016 0 0 0-22-14.384zM881.64 303.472c-70.208 0-125.416 52.072-127.728 54.296a23.984 23.984 0 0 0 0 34.672c2.312 2.216 57.512 54.296 127.728 54.296 70.2 0 125.416-52.072 127.728-54.296a23.984 23.984 0 0 0 0-34.672c-2.312-2.216-57.52-54.296-127.728-54.296z m-71.464 71.632c17.552-11.176 43.416-23.632 71.472-23.632 27.912 0 53.816 12.48 71.424 23.664-17.552 11.168-43.392 23.6-71.424 23.6-28.064 0-53.912-12.456-71.472-23.632zM696.408 159.616c15.584 50.032 55.984 83.512 87.576 115.12 53.6 53.592-2.928 87.6-14.8 92.968-5.368 11.864-43.864 72.88-97.472 19.288-31.592-31.6-65.064-71.984-115.112-87.576-67.088 0-134.736-0.616-184.824-50.72-75.648-75.64-75.648-198.272 0-273.912 75.632-75.64 198.272-75.64 273.912 0 50.112 50.096 50.72 117.736 50.72 184.832zM508.736-105.944c-58.152 0-112.816 22.64-153.928 63.76-41.12 41.112-63.76 95.784-63.76 153.928 0 58.152 22.648 112.816 63.768 153.928 56.648 56.664 131.392 57.728 197.976 57.744 35.504 12.192 62.288 39.8 88.208 66.52 4.648 4.792 9.216 9.496 13.752 14.024 19.072 19.072 39.336 28.744 60.216 28.744 35.968 0 61.08-29.216 71.88-47.224 12.992-7.6 37.4-25.528 42.816-55.264 3.08-16.88 0.592-43.152-28.712-72.456a1234.64 1234.64 0 0 0-14.064-13.784c-26.704-25.928-54.296-52.704-66.488-88.184-0.024-66.584-1.088-141.336-57.744-197.984-41.112-41.112-95.776-63.752-153.92-63.752z m206.232 490.648c-9.576 0-19.576-7.984-26.28-14.688-4.36-4.36-8.76-8.896-13.232-13.504-29.472-30.376-62.864-64.8-111.704-80.008-2.312-0.72-4.72-1.088-7.136-1.088-61.048 0-124.176 0-167.856-43.688-32.056-32.048-49.704-74.664-49.704-119.992s17.656-87.936 49.704-119.984a168.576 168.576 0 0 1 119.984-49.696 168.6 168.6 0 0 1 119.992 49.696c43.68 43.672 43.68 106.808 43.68 167.864 0 2.424 0.368 4.832 1.088 7.136 15.2 48.8 49.608 82.2 79.968 111.664 4.624 4.496 9.168 8.904 13.544 13.28 8.064 8.064 17.28 19.792 15.44 29.912-2.048 11.216-16.752 21.328-23.152 24.224a24.024 24.024 0 0 0-11.976 11.976c-2.688 5.936-17.008 26.896-32.36 26.896zM496.936-68.288c-52.856 0-102.552 20.584-139.92 57.96-37.376 37.368-57.96 87.064-57.96 139.92a196.568 196.568 0 0 0 57.968 139.928l33.936-33.944a148.896 148.896 0 0 1-43.904-105.984c0-40.032 15.592-77.672 43.904-105.984a148.896 148.896 0 0 1 105.984-43.904c40.04 0 77.672 15.592 105.992 43.896 38.504 38.496 38.504 92.16 38.504 148.968v3.656l1.088 3.488c13.832 44.408 44.96 74.624 72.432 101.28 4.144 4.024 8.216 7.976 12.136 11.896l42.952 45.352 34.84-33.008-43.4-45.824c-4.528-4.552-8.784-8.672-13.104-12.864-23.672-22.976-48.12-46.704-58.944-77.824-0.024-60.152-1.104-127.616-52.56-179.064-37.392-37.36-87.088-57.944-139.944-57.944zM568.384 722.384s20.456 4.232 47.528-22.832c40.6-40.592 15.896-178.952-102.688-297.544 0 0-66.944-61.528-134.6 6.128-54.312 54.312-47.968 92.528-43.36 105.496-12.952-4.616-51.168-10.96-105.488 43.352-67.656 67.656-6.128 134.592-6.128 134.592C342.24 810.168 480.6 834.864 521.192 794.264c27.072-27.056 24.128-47.592 24.128-47.592s1.352-8.352 8.44-15.456c7.112-7.096 14.624-8.832 14.624-8.832zM447.4 352.392c-31.168 0-60.016 13.04-85.752 38.776-38.56 38.56-50.728 71.736-52.904 95.896-23.24 2.096-56.744 13.752-95.936 52.952-66.392 66.376-33.504 138.792-6.832 167.8a20.08 20.08 0 0 0 0.696 0.728C300.96 802.824 401.168 836.416 463.504 836.416c32.368 0 58.184-8.704 74.664-25.176 26.376-26.36 30.888-49.632 31.224-61.168 0.304-0.584 0.744-1.28 1.36-1.896 0.656-0.656 1.312-1.168 1.896-1.56 11.912-0.216 34.736-4.608 60.24-30.088 27.272-27.264 32.664-80.808 14.424-143.232-18.952-64.832-60.536-131.688-117.112-188.256-0.24-0.24-0.48-0.48-0.728-0.704-1.424-1.304-35.304-31.944-82.072-31.944zM335.256 537.624a23.992 23.992 0 0 0 22.616-32.04c-1.872-5.272-8.856-33.912 37.712-80.488 16.4-16.4 33.832-24.72 51.808-24.712 26.232 0 46.896 16.984 49.344 19.08 50.72 50.864 87.816 110.256 104.488 167.296 14.616 50 9.384 84.152-2.28 95.816-13.872 13.864-23.728 15.76-26.552 16.008-3.712-1.216-5.192-0.568-9.424 0.416-2.368 0.552-14.768 3.864-26.16 15.232-11.992 12.016-14.752 25.944-15.184 28.616-0.512 3.16-0.936 3.792-0.272 6.456-0.336 2.808-2.552 13.424-17.128 28-7.064 7.072-21.912 11.12-40.72 11.12-50.224 0-138.56-29.696-222.432-113.36-7.968-9.024-42.112-53.32 5.672-101.096 34.168-34.168 58.64-39.264 70.192-39.264 5.168 0 8.648 0.968 10.264 1.544 2.64 0.92 5.36 1.376 8.056 1.376zM425.4 388.176c-25.664 0-54.08 9.56-81.424 36.912-40.216 40.216-49.264 66.888-32.264 95.144 0.416 0.696 0.848 1.352 1.184 2.032 4.44 12.496 18.032 18.712 30.528 14.28 12.488-4.44 18.896-18.464 14.456-30.952-1.504-4.216-3.544-7.616-5.04-10.104a57.536 57.536 0 0 1-1.32-2.264c0.608-2.384 4.304-12.104 26.392-34.2 43.48-43.472 83.808-12.776 92.4-5.24 47.224 47.368 81.752 102.64 97.264 155.712 13.408 45.888 8.504 77.808-1.736 88.04-5 4.992-8.512 7.968-10.8 9.704a24 24 0 0 0-23.304 33.52c3.44 7.928 10.76 13.664 19.576 15.344 14.24 2.712 28.264-4.432 48.464-24.624 26.296-26.288 31.352-75.664 13.872-135.456-17.792-60.856-56.816-123.608-109.888-176.68l-0.728-0.704c-15.552-14.272-44.256-30.456-77.632-30.464zM287.016 257.04a23.976 23.976 0 0 0-20.328 11.208c-48 76.192 34.72 230.232 44.32 247.544a23.984 23.984 0 0 0 32.608 9.368 24.008 24.008 0 0 0 9.384-32.616c-30.88-55.856-70.592-159.192-45.696-198.712a24 24 0 0 0-20.288-36.792zM217.568 424.512h-0.008a169.36 169.36 0 0 0-37.4 4.08c-74.784 16.976-121.608 76.616-123.568 79.144a24 24 0 0 0 6.224 35.008c2.272 1.432 56.392 34.936 118.832 34.936 12.24 0 24.168-1.296 35.44-3.856 75.544-17.152 119.904-81.024 121.752-83.736a23.976 23.976 0 0 0-7.472-34.112c-2.136-1.288-53.104-31.464-113.8-31.464zM115.848 515.504c16.88-14.728 42.92-32.832 74.936-40.104 8.44-1.92 17.448-2.888 26.784-2.888h0.008c23.584 0 45.92 6.184 62.328 12.36-16.024 15.52-41.352 34.856-73.432 42.136a112.432 112.432 0 0 1-24.816 2.664c-24.72 0.008-48.456-7.144-65.808-14.168z"  horiz-adv-x="1024" />

    
    <glyph glyph-name="mima1" unicode="&#58969;" d="M815.12448 470.61504 815.12448 591.5904c0 0-0.03584 282.22464-282.22464 282.22464-282.18368 0-282.22464-282.22464-282.22464-282.22464l0-120.97536L129.70496 470.61504l0-564.48 806.39488 0L936.09984 470.61504 815.12448 470.61504M573.2096 159.25248l0-132.1472L492.58496 27.10528l0 132.1472c-23.9872 13.97248-40.30976 39.71584-40.30976 69.44768 0 44.57472 36.12672 80.6656 80.62464 80.6656 44.49792 0 80.62976-36.09088 80.62976-80.6656C613.56032 198.96832 597.23776 173.23008 573.2096 159.25248L573.2096 159.25248zM734.49984 470.656 331.30496 470.656 331.30496 591.06816c0.44544 33.77152 12.32896 202.12224 201.59488 202.12224 189.27104 0 201.15456-168.35072 201.6-201.6L734.49984 470.656"  horiz-adv-x="1024" />

    
    <glyph glyph-name="shiwuqimin" unicode="&#59231;" d="M735.751708 704.506823s-732.678004-202.831683-616.773162-608.495048c0 0 74.509159-194.552546 471.894412 136.600636 0 0 343.571888 215.250388 322.87507 298.038684-0.002048 0 20.695794 70.369591-177.99632 173.855728zM223.165022 28.599165c-14.031324 0-27.511799 1.563473-40.326748 4.903387-56.35772 14.700945-73.110532 56.91369-73.796535 58.705489-24.342874 85.059273-14.477738 167.073512 29.033293 244.63692C196.994513 441.883309 315.148831 537.446622 489.246196 620.885085c129.026957 61.833459 242.537956 93.557522 243.670373 93.874926l4.036156 1.117059 3.714656-1.937191c185.348841-96.533956 186.689107-166.798087 183.946118-183.312333 15.204697-88.53434-289.239413-282.651735-327.482554-306.646488-110.996336-92.427152-260.194858-195.376774-373.965923-195.381893zM734.599837 693.102788C689.893932 679.996032 285.331243 555.913418 156.615547 326.409522c-40.617531-72.425552-49.838642-148.959956-27.407362-227.473531 0.238565-0.451533 13.781496-33.349993 59.703777-45.023309 59.749852-15.168861 176.777897 4.898267 395.150111 186.871358l1.163134 0.846753c130.299646 81.64052 331.90881 231.60286 318.200009 286.439087l-0.701361 2.810565 0.816037 2.773706c0.066553 0.337882 12.325532 64.077815-168.940055 159.448637zM826.960436 725.685891s-732.67698-360.129138-720.259299-492.59123c0 0 22.494761-211.11082 212.009791 0 0 0 177.096325 260.783592 413.043532 347.711457 0 0 107.624682 49.672773 169.716159 4.139568 0 0 66.231046 49.672773-57.951909 140.740205 0 0-10.271618 3.403395-16.558274 0zM179.321228 128.655287c-7.147743 0-13.984226 1.049482-20.503304 3.158686-53.26661 17.220727-62.332091 96.778665-62.69045 100.155438-12.742253 135.884941 649.583567 465.62721 725.988961 503.185372 9.812917 5.153215 22.326843 1.42832 24.753452 0.628665l2.940598-1.516374c52.862175-38.763275 79.755547-75.910858 79.941895-110.40965 0.165869-30.51895-20.996816-46.742413-21.895788-47.418177l-6.311229-4.737518-6.363447 4.664822c-56.259427 41.266674-157.946598-4.752876-158.975603-5.220791-230.855424-85.08999-406.942198-341.446302-408.693042-344.028541l-0.883614-1.127298c-58.093206-64.7116-107.51615-97.334635-147.308429-97.334634zM826.962484 725.683843l4.690419-9.54773c-291.867727-143.46374-722.965428-390.230342-714.357624-482.047259 0.062457-0.545731 7.958661-69.111236 48.108276-82.040859 33.552722-10.815301 83.641192 19.4958 144.918681 87.630249 11.869903 17.345641 184.684339 265.244661 417.75238 351.113827 3.693154 1.735486 105.151999 47.729438 171.956421 7.859344 3.885645 4.997584 8.612923 13.563409 8.436815 25.506007-0.275425 18.608092-12.64396 49.583695-69.697922 91.806678-2.612955 0.596925-5.724543 0.794535-6.774026 0.348121l-5.03342 9.371622zM301.41341 180.680948c-1.454941 0-2.966196 0.135153-4.52455 0.410578-41.791927 7.41293-117.993569 124.030397-121.219831 128.991121l8.924185 5.797238c21.262003-32.716208 83.220375-118.824964 114.155022-124.310941 3.371654-0.581567 6.015326-0.109556 8.139889 1.480538 15.01835 11.262739-11.698914 54.721551-33.168766 89.641161-19.999552 32.53498-37.272497 60.628346-33.817908 76.924504 1.163134 5.475739 5.220791 12.48321 17.957925 14.789 34.487529 6.187339 117.941351-28.171181 147.58795-64.997265-7.095525 26.996784-28.509063 83.972931-47.381317 113.30315-29.761275 19.813205-28.622714 22.285888-26.763339 26.352761 2.545379 5.558673 9.298927 3.023533 13.755899 1.360744 6.400307-2.399987 13.309485-9.615307 20.249381-19.724127 23.381445-15.547699 58.554978-37.127106 83.916617-50.960821 3.652199-1.989409 5.002704-1.708865 5.012942-1.708864 6.961396 7.174364-15.69309 74.976051-49.630793 147.957572l-5.454237 11.724511 12.12485-4.493832c3.735134-1.382245 74.965812-28.21316 114.050586-73.765819-10.898235 37.355432-24.368471 84.487945-30.020317 108.975187-0.71672 3.106468-2.394868 10.389364 2.69589 13.314605 5.028301 2.888381 10.249092-2.009887 12.472971-4.113971 9.823156-9.251828 55.350217-74.793799 89.271537-128.886685-4.669941 14.10914-10.113939 30.820996-16.498888 50.60246-10.784584 33.397092-20.971219 64.945046-25.568464 75.8955-2.301694 5.475739-0.596925 8.352856 1.236853 9.802678 4.196906 3.339914 9.459677 0.035836 14.482858-3.630697 14.732686-10.747724 47.329099-42.576223 76.389013-77.230646 9.729982-11.609836 17.963044-22.181452 24.690994-31.713824-5.095877 45.859824-14.618011 110.549922-39.272145 130.652887a1720.960788 1720.960788 0 0 1-11.621099 6.768905c-0.654263 0.378838-1.360744 0.784296-2.046747 1.236854a8.098933 8.098933 0 0 1-0.280544 0.145392l0.015358 0.035836c-2.384629 1.646408-4.32182 3.875406-2.37439 7.360711 1.849137 3.309197 4.32182 3.174045 7.485626 1.813301l0.03686 0.057338 0.623546-0.35836c1.034124-0.488393 2.134801-1.080199 3.314317-1.713984l5.111235-2.758347a39.104228 39.104228 0 0 0 5.636489-3.714656c49.044107-28.825444 101.827443-63.126626 125.35428-89.396452-2.85664 25.433311-9.19449 61.397284-22.467116 91.318285l9.724863 4.311581c18.773961-42.321276 26.316925-103.723679 25.329899-124.534148 0.025597-1.412962 0.057338-2.269954 0.082935-2.623195l-0.275425-0.020477c-0.238565-2.269954-0.633785-3.755611-1.169277-4.311582l-5.82386-1.236853c-3.490425 1.418081-3.490425 2.582239-3.490425 13.755899 0 11.526901-29.568784 40.82538-109.728766 89.827508 18.223111-35.687523 24.311133-94.684819 28.36879-133.946726 0.093174-0.919449 0.187371-1.838898 0.285664-2.758347 8.425552-15.132001 11.308813-26.379382 8.587327-33.640777-0.732078-1.94231-2.966196-7.921801-8.317021-7.179483-6.30611 0.809893-7.423169 6.841602-10.628953 37.558161-23.521718 40.639032-82.128914 101.796727-105.885101 120.902427 5.469595-15.241557 13.418017-39.848593 22.316604-67.40749 10.036124-31.085158 23.579055-73.032716 32.971155-98.497769 8.306782-15.137121 13.00232-25.813173 11.646696-28.539779l-1.755963-3.537524-4.16619 0.535492c-3.735134 0.628666-7.157982 4.87267-15.895819 28.467084-26.041499 45.719551-87.334347 140.975699-109.474843 165.452701 8.706097-36.067384 30.586526-110.144464 40.155758-142.523813 2.046747-6.929656 3.464828-11.73475 4.301343-15.106404a71.69245 71.69245 0 0 1 0.654262-1.994529l-0.182251-0.062457c1.179516-5.651847-0.020478-6.015326-3.209881-6.981874-3.298959-0.997264-4.467212-1.350505-6.596893 3.990081l-0.145392-0.030717a51.805526 51.805526 0 0 1-0.420816 1.527637c-1.101701 3.013295-2.472683 7.402691-4.441615 13.71392-15.687971 50.191883-87.702945 86.300222-116.898011 99.116195 21.474971-47.371078 57.194234-133.177788 41.438686-147.962692-2.825923-2.660054-8.104052-4.757995-17.220727 0.223207-18.165773 9.91121-43.813077 25.199866-66.550498 39.646888 22.166093-41.968036 41.485786-102.539044 40.872478-114.799047-0.275425-5.42864-3.542643-6.867199-4.935127-7.236821-5.168573-1.360744-8.966164 3.797591-12.721775 9.693122-22.597149 35.511415-108.202153 72.155247-141.043276 66.227975-8.384597-1.511255-9.184251-5.283248-9.444318-6.519078-2.577119-12.140208 16.046331-42.430832 32.472523-69.152191 26.186891-42.591582 53.261491-86.638105 30.483114-103.71856-3.420801-2.573024-7.3945-3.861072-11.852496-3.861071zM712.861727 381.422881c0-6.252868-5.069256-11.322124-11.322123-11.322124s-11.322124 5.069256-11.322124 11.322124 5.069256 11.322124 11.322124 11.322124 11.322124-5.069256 11.322123-11.322124zM712.861727 472.003968c0-6.252868-5.069256-11.322124-11.322123-11.322124s-11.322124 5.069256-11.322124 11.322124 5.069256 11.322124 11.322124 11.322123 11.322124-5.069256 11.322123-11.322123zM795.894732 483.326091c0-6.252868-5.069256-11.322124-11.322124-11.322123s-11.323148 5.069256-11.323148 11.322123 5.069256 11.322124 11.323148 11.322124c6.252868 0.001024 11.322124-5.068232 11.322124-11.322124zM867.604588 494.649239c0-6.252868-5.069256-11.322124-11.322124-11.322124s-11.322124 5.069256-11.322124 11.322124 5.069256 11.322124 11.322124 11.322124 11.322124-5.069256 11.322124-11.322124zM629.829747 358.777609c0-6.252868-5.069256-11.323148-11.322124-11.323148s-11.322124 5.069256-11.322124 11.323148c0 6.252868 5.069256 11.322124 11.322124 11.322124s11.322124-5.069256 11.322124-11.322124zM618.506599 279.51967c0-6.252868-5.069256-11.322124-11.322124-11.322124s-11.322124 5.069256-11.322124 11.322124 5.069256 11.322124 11.322124 11.322124 11.322124-5.069256 11.322124-11.322124zM546.796743 302.164942c0-6.252868-5.069256-11.322124-11.322124-11.322124s-11.322124 5.069256-11.322124 11.322124 5.069256 11.322124 11.322124 11.322123 11.322124-5.069256 11.322124-11.322123zM569.442014 381.422881c0-6.252868-5.069256-11.322124-11.322123-11.322124s-11.322124 5.069256-11.322124 11.322124 5.069256 11.322124 11.322124 11.322124 11.322124-5.069256 11.322123-11.322124zM471.312845 290.841794c0-6.252868-5.069256-11.322124-11.322124-11.322124s-11.322124 5.069256-11.322124 11.322124 5.069256 11.322124 11.322124 11.322124c6.252868 0.001024 11.322124-5.069256 11.322124-11.322124zM471.312845 226.68002c0-6.252868-5.069256-11.322124-11.322124-11.322124s-11.323148 5.069256-11.323148 11.322124 5.069256 11.322124 11.323148 11.322124c6.252868 0.001024 11.322124-5.068232 11.322124-11.322124zM414.700178 185.164542c0-6.252868-5.069256-11.322124-11.322124-11.322124s-11.322124 5.069256-11.322124 11.322124 5.069256 11.322124 11.322124 11.322123 11.322124-5.069256 11.322124-11.322123zM361.860528 226.68002c0-6.252868-5.069256-11.323148-11.323148-11.323148-6.252868 0-11.322124 5.069256-11.322124 11.323148 0 6.252868 5.069256 11.322124 11.322124 11.322124 6.253892 0.001024 11.323148-5.068232 11.323148-11.322124zM309.021902 124.776809c0-6.252868-5.069256-11.322124-11.322124-11.322124s-11.322124 5.069256-11.322124 11.322124 5.069256 11.322124 11.322124 11.322124c6.252868 0.001024 11.322124-5.069256 11.322124-11.322124zM244.860128 113.454685c0-6.252868-5.069256-11.322124-11.322124-11.322124s-11.322124 5.069256-11.322124 11.322124 5.069256 11.322124 11.322124 11.322124 11.322124-5.069256 11.322124-11.322124z"  horiz-adv-x="1024" />

    
    <glyph glyph-name="shouji" unicode="&#58929;" d="M754.9 831.6H269.1c-10.3 0-18.7-8.4-18.7-18.7v-857.8c0-10.3 8.4-18.7 18.7-18.7h485.7c10.3 0 18.7 8.4 18.7 18.7V812.9c0.1 10.3-8.3 18.7-18.6 18.7z m-18.7-37.4v-721.6H287.8V794.2h448.4zM475 20.1c0 19.3 15.7 35 35 35s35-15.7 35-35-15.7-35-35-35c-19.3-0.1-35 15.6-35 35z"  horiz-adv-x="1024" />

    
    <glyph glyph-name="jinggao" unicode="&#59062;" d="M512 831.996928c-247.412736 0-448-200.576-448-448.002048 0-247.419904 200.587264-447.990784 448-447.990784 247.431168 0 448 200.571904 448 447.990784 0 247.426048-200.568832 448.002048-448 448.002048z m-22.288384-201.660416c-0.007168 12.377088 10.028032 22.403072 22.40512 22.403072 12.367872-0.004096 22.411264-10.034176 22.411264-22.403072v-268.778496c0-12.370944-10.036224-22.395904-22.411264-22.395904-12.367872-0.009216-22.406144 10.02496-22.406144 22.4l0.001024 268.7744z m21.941248-515.257344c-37.111808 0-67.196928 30.08-67.196928 67.18976s30.08512 67.198976 67.196928 67.198976c37.107712 0 67.19488-30.089216 67.19488-67.198976s-30.088192-67.18976-67.19488-67.18976z"  horiz-adv-x="1024" />

    
    <glyph glyph-name="xiaoxi" unicode="&#58904;" d="M514.4 798.3c-229.3 0-415.2-159.4-415.2-356.1 0-162.2 126.6-298.8 299.5-341.8l115.7-132.7 115.7 132.7c173 43 299.5 179.6 299.5 341.8 0 196.7-185.9 356.1-415.2 356.1z"  horiz-adv-x="1024" />

    
    <glyph glyph-name="xiaoxi1" unicode="&#58905;" d="M509.8 797.8c-220.2 0-398.7-156.2-398.7-348.9 0-110.1 58.5-208.2 149.5-272.1v-176.5l174.7 106c24.2-4 49-6.3 74.5-6.3 220.2 0 398.7 156.2 398.7 348.9 0.1 192.7-178.4 348.9-398.7 348.9z"  horiz-adv-x="1024" />

    
    <glyph glyph-name="jibenziliao" unicode="&#58886;" d="M917.333333 384c-12.8 0-21.333333-8.533333-21.333333-21.333333v-85.333334c0-12.8 8.533333-21.333333 21.333333-21.333333s21.333333 8.533333 21.333334 21.333333v85.333334c0 12.8-8.533333 21.333333-21.333334 21.333333zM902.4 462.933333c-4.266667-4.266667-6.4-8.533333-6.4-14.933333 0-2.133333 0-6.4 2.133333-8.533333s2.133333-4.266667 4.266667-6.4c4.266667-4.266667 10.666667-6.4 14.933333-6.4h4.266667c2.133333 0 2.133333 0 4.266667 2.133333 2.133333 0 2.133333 2.133333 4.266666 2.133333s2.133333 2.133333 4.266667 2.133334c2.133333 2.133333 4.266667 4.266667 4.266667 6.4V448c0 6.4-2.133333 10.666667-6.4 14.933333-8.533333 8.533333-21.333333 8.533333-29.866667 0zM938.666667 597.333333c0 2.133333 0 4.266667-2.133334 8.533334-2.133333 2.133333-2.133333 4.266667-4.266666 6.4l-256 256c-2.133333 2.133333-4.266667 4.266667-6.4 4.266666-2.133333 2.133333-6.4 2.133333-8.533334 2.133334H213.333333C142.933333 874.666667 85.333333 817.066667 85.333333 746.666667v-725.333334c0-70.4 57.6-128 128-128h597.333334c70.4 0 128 57.6 128 128v170.666667c0 12.8-8.533333 21.333333-21.333334 21.333333s-21.333333-8.533333-21.333333-21.333333v-170.666667c0-46.933333-38.4-85.333333-85.333333-85.333333H213.333333c-46.933333 0-85.333333 38.4-85.333333 85.333333V746.666667c0 46.933333 38.4 85.333333 85.333333 85.333333h426.666667v-128c0-70.4 57.6-128 128-128h128v-42.666667c0-12.8 8.533333-21.333333 21.333333-21.333333s21.333333 8.533333 21.333334 21.333333v64zM682.666667 704V802.133333l183.466666-183.466666H768c-46.933333 0-85.333333 38.4-85.333333 85.333333zM234.666667 597.333333h277.333333c12.8 0 21.333333 8.533333 21.333333 21.333334s-8.533333 21.333333-21.333333 21.333333H234.666667c-12.8 0-21.333333-8.533333-21.333334-21.333333s8.533333-21.333333 21.333334-21.333334zM768 405.333333H234.666667c-12.8 0-21.333333-8.533333-21.333334-21.333333s8.533333-21.333333 21.333334-21.333333h533.333333c12.8 0 21.333333 8.533333 21.333333 21.333333s-8.533333 21.333333-21.333333 21.333333zM768 170.666667H234.666667c-12.8 0-21.333333-8.533333-21.333334-21.333334s8.533333-21.333333 21.333334-21.333333h533.333333c12.8 0 21.333333 8.533333 21.333333 21.333333s-8.533333 21.333333-21.333333 21.333334z"  horiz-adv-x="1024" />

    
    <glyph glyph-name="yisheng" unicode="&#58881;" d="M758.9 576H263.6V700.7c0 72.6 87.7 131.1 160.2 131.1h174.8c72.5 0 160.2-58.5 160.2-131.1V576z m-466.1 29.1h437v95.6c0 54-73.3 102-131.1 102H423.9c-57.8 0-131.1-48-131.1-102v-95.6zM729.8 565c0-140.6-98-255-218.5-255S292.8 424.4 292.8 565h-29.1c0-156.7 111.1-284.2 247.6-284.2 136.6 0 247.6 127.5 247.6 284.2h-29.1zM685.2 245c-8 0-14.6-6.3-14.6-14.2 0-95.4-35.8-210-84.5-265.2l-150 0.1c-51.2 56-84.3 170.7-84.3 265.1 0 7.8-6.5 14.2-14.6 14.2-8 0-14.6-6.3-14.6-14.2 0-105.3 37.4-228.3 96.4-289 2.7-2.8 6.6-4.4 10.6-4.4l163-0.1c4.1 0 8 1.7 10.7 4.6 56.3 59.6 96.4 182.7 96.4 289 0.1 7.7-6.4 14.1-14.5 14.1zM592.6-64.10000000000002c-184.5 0-386.7 4.4-483.4 8.3-47.5 1.9-45.9 59.8-44.9 98 0.2 5.7 0.3 11.1 0.3 16.1 0 126.5 284.7 201.8 382.8 213.5 32.5 3.8 96.2 3.8 128.8 0 98-11.7 382.4-87 382.4-213.5 0-5 0.1-10.3 0.3-16 1-37.4 2.6-93.9-44-98.1-69.2-6.1-191.3-8.3-322.3-8.3z m-80.7 309c-22.9 0-45.8-0.9-60.6-2.6-120.6-14.4-355.4-92.4-355.4-183.9 0-5.2-0.2-10.9-0.3-16.9-0.7-26.6-1.8-66.8 15-67.4 164.7-6.8 636-14.9 801.5-0.1 16.2 1.5 16.7 32.8 15.7 67.6-0.1 5.9-0.3 11.5-0.3 16.7 0 91.6-234.6 169.5-355.1 183.9-14.7 1.8-37.6 2.7-60.5 2.7zM496.7 761.2h29.1v-116.5h-29.1zM453 717.5h116.5v-29.1H453z"  horiz-adv-x="1024" />

    
    <glyph glyph-name="meishijiayin" unicode="&#58900;" d="M579.8 606.5l-42 169.2L389 752.3c-9.8-1.5-18.9 5.1-20.5 14.9l-2.2 14c-1.5 9.8 5.1 18.9 14.9 20.5L556 829.1c10.8 1.7 21.2-5.2 23.8-15.8l48.4-194.8c2.4-9.6-3.5-19.3-13.1-21.7l-13.7-3.4c-9.5-2.4-19.3 3.5-21.6 13.1zM240.7 146.10000000000002m-176.5 0a176.5 176.5 0 1 1 353 0 176.5 176.5 0 1 1-353 0ZM164.2 294.70000000000005c28.6-14.4 59.3-20.3 89.1-18.7-4.1 60.1-38.9 116.6-96.6 145.7-28.6 14.4-59.3 20.3-89.1 18.7 4.1-60.2 38.9-116.6 96.6-145.7zM860.4-30.899999999999977H542.6c-18 0-32.9 12.3-34.5 28.3l-60 601.7c-0.7 7.4 5.8 13.9 14.2 13.9h479.2c8.4 0 14.9-6.5 14.1-13.9l-63.4-604c-1.5-14.7-15.3-26-31.8-26z"  horiz-adv-x="1024" />

    
    <glyph glyph-name="chakan2" unicode="&#59078;" d="M960 384c0-83.2-185.6-268.8-448-268.8-256 0-448 179.2-448 268.8s192 268.8 448 268.8c262.4 0 448-179.2 448-268.8M512 601.6C390.4 601.6 294.4 505.6 294.4 384s96-217.6 217.6-217.6 217.6 96 217.6 217.6S633.6 601.6 512 601.6m0-76.8c-76.8 0-134.4-64-134.4-140.8s64-140.8 134.4-140.8c76.8 0 134.4 64 134.4 140.8S588.8 524.8 512 524.8"  horiz-adv-x="1024" />

    
    <glyph glyph-name="chakan3" unicode="&#58890;" d="M512 640C264.58 640 64 384 64 384s200.58-256 448-256 448 256 448 256-200.58 256-448 256z m0-448c-106 0-192 86-192 192s86 192 192 192 192-86 192-192-86-192-192-192zM512 384m-160 0a160 160 0 1 1 320 0 160 160 0 1 1-320 0Z"  horiz-adv-x="1024" />

    


  </font>
</defs>
</svg>
